<?xml version="1.0" encoding="utf-8"?>
<!-- Generator: Adobe Illustrator 19.0.0, SVG Export Plug-In . SVG Version: 6.00 Build 0)  -->
<svg version="1.1" xmlns="http://www.w3.org/2000/svg" xmlns:xlink="http://www.w3.org/1999/xlink" x="0px" y="0px"
	 height="70px" viewBox="0 0 2566.7 768.7" xml:space="preserve">
<style type="text/css">
	.st0{display:none;}
	.st1{display:inline;}
	.st2{display:inline;opacity:0.37;}
	.st3{fill:#79C6C0;}
	.st4{fill:#3E3F92;}
	.st5{fill:#F29FC5;}
	.st6{fill:#E4DEF0;}
	.st7{opacity:0.37;fill:#010202;}
	.st8{fill:#E2DEF0;}
	.st9{fill:#FBBA00;}
	.st10{fill:#554596;}
</style>
<defs xmlns="http://www.w3.org/2000/svg">
	<link xmlns="http://www.w3.org/1999/xhtml" href="https://fonts.googleapis.com/css?family=Comfortaa" rel="stylesheet" type="text/css"/>
</defs>
<g id="Camada_3" class="st0">
	<polygon id="XMLID_15_" class="st1" points="276.4,654.4 258.2,680.9 196.7,680.8 217.6,654.3 	"/>
	<polygon id="XMLID_8_" class="st1" points="217.8,654.3 111.2,735.5 169.8,735.6 276.4,654.4 	"/>
	<polygon id="XMLID_7_" class="st1" points="192.8,707.9 169.8,735.6 169.8,707.9 	"/>
	<polygon id="XMLID_6_" class="st2" points="217.8,654.3 214.8,680.8 217.8,680.8 	"/>
	<polygon id="XMLID_5_" class="st2" points="169.8,707.9 172.9,707.9 169.8,735.6 	"/>
	<polygon id="XMLID_28_" class="st1" points="335.5,657.2 248.7,735.3 217.7,735.3 306.3,657.2 	"/>
	<polygon id="XMLID_27_" class="st1" points="335.5,657.2 330.2,677.9 313.3,677.2 335.5,657.2 	"/>
	<polygon id="XMLID_31_" class="st1" points="403.7,734.8 419.7,726.8 419.7,681.1 403.7,654.3 496,656 506.4,689.7 488,718.6 
		454.8,734.8 	"/>
	<polyline id="XMLID_29_" class="st1" points="419.7,658.9 448.5,658.9 403.7,602.4 	"/>
	<polygon id="XMLID_26_" class="st1" points="419.7,658.9 449,661.1 448.5,636 448.5,658.9 419.7,658.9 	"/>
</g>
<g id="Camada_2">
	<polygon id="XMLID_1_" class="st3" points="127.4,47.5 370.9,509.4 466.4,509.4 217.4,47.5 	"/>
	<polygon id="XMLID_9_" class="st4" points="126.1,48.8 98.1,125.5 168.5,125.4 126.6,47.5 	"/>
	<polygon id="XMLID_10_" class="st5" points="88.5,509.4 182.9,509.4 271.6,323.5 224,230.7 	"/>
	<polygon id="XMLID_12_" class="st6" points="497.1,428.2 466.4,509.4 422.6,428.2 	"/>
	<polygon id="XMLID_14_" class="st7" points="127.4,47.5 158.2,125.4 168.5,125.4 	"/>
	<polyline id="XMLID_11_" class="st7" points="466.4,509.4 465.6,507.2 435.2,428.2 422.6,428.2 	"/>
	<polygon id="XMLID_13_" class="st7" points="219.4,240.2 267.1,333 272.2,322.3 224,230.7 	"/>
	<polygon id="XMLID_18_" class="st3" points="327.5,579.8 248.5,735.3 217.5,735.3 298.3,579.8 	"/>
	<polygon id="XMLID_17_" class="st8" points="328,580.2 337.1,606 314.2,606 327.8,579.8 	"/>
	<polygon id="XMLID_4_" class="st8" points="207.5,707.9 217.5,735.3 231.7,707.9 	"/>
	<polygon id="XMLID_3_" class="st7" points="327.5,579.8 317.6,606 314.2,606 	"/>
	<polyline id="XMLID_2_" class="st7" points="217.5,735.3 217.8,734.5 227.6,707.9 231.7,707.9 	"/>
</g>
<g id="Camada_1">
	<polygon id="XMLID_25_" class="st9" points="167,579.5 148.9,606 87.4,606 108.3,579.5 	"/>
	<rect id="XMLID_24_" x="108.4" y="579.5" class="st10" width="58.6" height="156.1"/>
	<polygon id="XMLID_23_" class="st9" points="190,707.9 167,735.6 167,707.9 	"/>
	<polygon id="XMLID_22_" class="st9" points="393.8,735.3 351,689.7 351,625.2 393.8,579.7 454.3,579.7 497.1,625.2 497.1,689.7 
		454.3,735.3 	"/>
	<polyline id="XMLID_21_" class="st10" points="454.3,735.3 454.3,689.7 497.1,689.7 	"/>
	<polyline id="XMLID_20_" class="st10" points="351,625.2 393.8,625.2 393.8,579.7 	"/>
	<polygon id="XMLID_45_" class="st7" points="351,625.2 394.6,628.4 393.8,592.9 393.8,625.2 351,625.2 	"/>
	<polygon id="XMLID_46_" class="st7" points="454.3,730.9 451.7,688.8 486,689.7 454.3,689.7 454.3,730.9 	"/>
	<polygon id="XMLID_48_" class="st7" points="108.4,579.5 105.5,606 108.4,606 	"/>
	<polygon id="XMLID_49_" class="st7" points="167,707.9 170.1,707.9 167,735.6 	"/>
</g>
<text id="lambdaText" transform="translate(600, 530)" style="font-family: 'Comfortaa'; font-size: 380px; fill: #48aaa3">Fortaleza</text>
</svg>
